<?xml version="1.0" encoding="utf-8"?>
<!-- Generator: Adobe Illustrator 26.3.1, SVG Export Plug-In . SVG Version: 6.00 Build 0)  -->
<svg version="1.1" id="圖層_1" xmlns="http://www.w3.org/2000/svg" xmlns:xlink="http://www.w3.org/1999/xlink" x="0px" y="0px"
	 viewBox="0 0 100 100" style="enable-background:new 0 0 100 100;" xml:space="preserve">
<style type="text/css">
	.st0{fill:#B22C27;}
</style>
<g>
	<path class="st0" d="M31.69,13.17h36.46c1.15,0,2.08-0.93,2.08-2.08S69.3,9,68.15,9H31.69c-1.15,0-2.08,0.93-2.08,2.08
		S30.54,13.17,31.69,13.17z"/>
	<path class="st0" d="M87.59,61.57c1.15,0,2.08-0.93,2.08-2.08V29.55c0-5.61-4.56-10.17-10.17-10.17H20.25
		c-5.61,0-10.17,4.56-10.17,10.17s4.56,10.17,10.17,10.17h7.55c1.15,0,2.08-0.93,2.08-2.08s-0.93-2.08-2.08-2.08h-7.55
		c-3.31,0-6-2.69-6-6s2.69-6,6-6h30.31v10.73h-4.78c-6.55,0-11.88,5.33-11.88,11.88v33.02c0,6.55,5.33,11.88,11.88,11.88h24.87
		c1.15,0,2.08-0.93,2.08-2.08s-0.93-2.08-2.08-2.08H45.79c-4.25,0-7.71-3.46-7.71-7.71V46.15c0-4.25,3.46-7.71,7.71-7.71h4.78v12.69
		c0,3.46-2.81,6.27-6.27,6.27h-3.27c-1.15,0-2.08,0.93-2.08,2.08s0.93,2.08,2.08,2.08h3.27c5.75,0,10.44-4.68,10.44-10.43V38.45h5
		v10.6c0,4.86,3.96,8.82,8.82,8.82H70c1.15,0,2.08-0.93,2.08-2.08S71.15,53.7,70,53.7h-1.44c-2.57,0-4.65-2.09-4.65-4.65v-10.6h3.51
		c4.25,0,7.71,3.46,7.71,7.71v33.02c0,6.55,5.33,11.88,11.88,11.88h0.6c1.15,0,2.08-0.93,2.08-2.08s-0.93-2.08-2.08-2.08h-0.6
		c-4.25,0-7.71-3.46-7.71-7.71V46.15c0-6.55-5.33-11.88-11.88-11.88h-3.51V23.54h15.6c3.31,0,6,2.69,6,6v29.94
		C85.51,60.63,86.44,61.57,87.59,61.57z M59.74,34.28h-5V23.54h5V34.28z"/>
	<path class="st0" d="M29.12,59.14h-6.58c-4.57,0-8.29-3.72-8.29-8.29v-6.4c0-1.15-0.93-2.08-2.08-2.08s-2.08,0.93-2.08,2.08v6.4
		c0,6.87,5.59,12.46,12.46,12.46h6.58c1.15,0,2.08-0.93,2.08-2.08S30.27,59.14,29.12,59.14z"/>
	<path class="st0" d="M28.94,69.93c-1.15,0-2.08,0.93-2.08,2.08v6.58c0,4.57-3.72,8.29-8.29,8.29h-6.4c-1.15,0-2.08,0.93-2.08,2.08
		s0.93,2.08,2.08,2.08h6.4c6.87,0,12.46-5.59,12.46-12.46v-6.58C31.03,70.86,30.09,69.93,28.94,69.93z"/>
	<path class="st0" d="M46.66,73.66c-1.15,0-2.08,0.93-2.08,2.08s0.93,2.08,2.08,2.08h20.83c1.15,0,2.08-0.93,2.08-2.08
		s-0.93-2.08-2.08-2.08H46.66z"/>
</g>
</svg>
