<?xml version="1.0" encoding="utf-8"?>
<!-- Generator: Adobe Illustrator 26.3.1, SVG Export Plug-In . SVG Version: 6.00 Build 0)  -->
<svg version="1.1" id="圖層_1" xmlns="http://www.w3.org/2000/svg" xmlns:xlink="http://www.w3.org/1999/xlink" x="0px" y="0px"
	 viewBox="0 0 100 100" style="enable-background:new 0 0 100 100;" xml:space="preserve">
<style type="text/css">
	.st0{fill:#FEFEFE;}
	.st1{fill:#E5E1D8;}
	.st2{fill:#B22C27;}
</style>
<path class="st0" d="M99.98,55.15c-0.38-0.64-0.35-1.28,0-1.92C99.98,53.88,99.98,54.51,99.98,55.15z"/>
<path class="st0" d="M53.48,99.98c0.64-0.35,1.28-0.38,1.92,0C54.75,99.98,54.11,99.98,53.48,99.98z"/>
<path class="st0" d="M99.98,46.52c-0.35-0.56-0.38-1.12,0-1.68C99.98,45.41,99.98,45.97,99.98,46.52z"/>
<path class="st0" d="M44.61,99.98c0.56-0.38,1.12-0.35,1.68,0C45.73,99.98,45.17,99.98,44.61,99.98z"/>
<g>
	<g>
		<circle class="st1" cx="50" cy="50" r="50"/>
	</g>
	<g>
		<path class="st2" d="M35.91,21.45h28.24c0.89,0,1.61-0.72,1.61-1.61s-0.72-1.61-1.61-1.61H35.91c-0.89,0-1.61,0.72-1.61,1.61
			S35.02,21.45,35.91,21.45z"/>
		<path class="st2" d="M79.21,58.94c0.89,0,1.61-0.72,1.61-1.61V34.14c0-4.34-3.53-7.88-7.88-7.88h-45.9
			c-4.34,0-7.88,3.54-7.88,7.88s3.54,7.88,7.88,7.88h5.85c0.89,0,1.61-0.72,1.61-1.61s-0.72-1.61-1.61-1.61h-5.85
			c-2.56,0-4.65-2.09-4.65-4.65c0-2.56,2.09-4.65,4.65-4.65h23.48v8.31h-3.7c-5.07,0-9.2,4.13-9.2,9.2v25.58
			c0,5.07,4.13,9.2,9.2,9.2h19.26c0.89,0,1.61-0.72,1.61-1.61s-0.72-1.61-1.61-1.61H46.83c-3.29,0-5.97-2.68-5.97-5.97V47
			c0-3.29,2.68-5.97,5.97-5.97h3.7v9.83c0,2.68-2.18,4.85-4.85,4.85h-2.53c-0.89,0-1.61,0.72-1.61,1.61s0.72,1.61,1.61,1.61h2.53
			c4.46,0,8.08-3.63,8.08-8.08v-9.83h3.88v8.21c0,3.77,3.07,6.83,6.83,6.83h1.12c0.89,0,1.61-0.72,1.61-1.61s-0.72-1.61-1.61-1.61
			h-1.12c-1.99,0-3.6-1.62-3.6-3.6v-8.21h2.72c3.29,0,5.97,2.68,5.97,5.97v25.58c0,5.07,4.13,9.2,9.2,9.2h0.46
			c0.89,0,1.61-0.72,1.61-1.61s-0.72-1.61-1.61-1.61h-0.46c-3.29,0-5.97-2.68-5.97-5.97V47c0-5.07-4.13-9.2-9.2-9.2h-2.72v-8.31
			h12.08c2.56,0,4.65,2.09,4.65,4.65v23.19C77.6,58.22,78.32,58.94,79.21,58.94z M57.64,37.8h-3.88v-8.31h3.88V37.8z"/>
		<path class="st2" d="M33.92,57.06h-5.1c-3.54,0-6.42-2.88-6.42-6.42v-4.96c0-0.89-0.72-1.61-1.61-1.61s-1.61,0.72-1.61,1.61v4.96
			c0,5.32,4.33,9.65,9.65,9.65h5.1c0.89,0,1.61-0.72,1.61-1.61S34.81,57.06,33.92,57.06z"/>
		<path class="st2" d="M33.78,65.42c-0.89,0-1.61,0.72-1.61,1.61v5.1c0,3.54-2.88,6.42-6.42,6.42h-4.96c-0.89,0-1.61,0.72-1.61,1.61
			s0.72,1.61,1.61,1.61h4.96c5.32,0,9.65-4.33,9.65-9.65v-5.1C35.4,66.14,34.67,65.42,33.78,65.42z"/>
		<path class="st2" d="M47.5,68.31c-0.89,0-1.61,0.72-1.61,1.61s0.72,1.61,1.61,1.61h16.14c0.89,0,1.61-0.72,1.61-1.61
			s-0.72-1.61-1.61-1.61H47.5z"/>
	</g>
</g>
</svg>
